# xmcd
#
# Track frame offsets:
#	150
#	10935
#	29158
#	40679
#	52874
#	65481
#	72756
#	84379
#	91897
#	101801
#	113831
#	127966
#	137768
#	155100
#	166099
#	180312
#	192939
#	207739
#	222936
#	231612
#	244385
#
# Disc length: 3357 seconds
#
# Revision: 1
# Processed by: cddbd v1.5.2PL0 Copyright (c) Steve Scherf et al.
# Submitted via: audiograbber 1.83.01
#
DISCID=2d0d1b15
DTITLE=Roy Rogers - And The Songs Of The Pioneers - The Centennial Collection
DYEAR=2011
DGENRE=Western
TTITLE0=Cowboy Night Herd Song
TTITLE1=Jesse James
TTITLE2=Hadie Brown (My Little Lady)
TTITLE3=Seein' Nellie Home (Aunt Dinah's Quilting Party)
TTITLE4=Swiss Yodel
TTITLE5=Goodbye My Lover Goodbye
TTITLE6=Black Sheep Blues
TTITLE7=One More River To Cross
TTITLE8=Sing, Cowboy, Sing
TTITLE9=When The Work's All Done This Fall
TTITLE10=Dear Old Western Skies
TTITLE11=New River Train
TTITLE12=Billy The Kid
TTITLE13=Goodbye Old Paint
TTITLE14=Memories Of The Range
TTITLE15=Cool Water
TTITLE16=The Strawberry Roan
TTITLE17=When It's Night Time In Nevada
TTITLE18=Square Dance
TTITLE19=That Silver Haired Daddy Of Mine
TTITLE20=It's Home Sweet Home To Me
EXTD=
EXTT0=
EXTT1=
EXTT2=
EXTT3=
EXTT4=
EXTT5=
EXTT6=
EXTT7=
EXTT8=
EXTT9=
EXTT10=
EXTT11=
EXTT12=
EXTT13=
EXTT14=
EXTT15=
EXTT16=
EXTT17=
EXTT18=
EXTT19=
EXTT20=
PLAYORDER=
